Coordinates
version=1
nRows=18
nColumns=22
inDegrees=yes

Units are S.I. units (second, meters, Newtons, ...)
If the header above contains a line with 'inDegrees', this indicates whether rotational values are in degrees (yes) or radians (no).

endheader
time	pelvis_tilt	pelvis_list	pelvis_rotation	pelvis_tx	pelvis_ty	pelvis_tz	hip_flexion_r	hip_adduction_r	hip_rotation_r	knee_angle_r	ankle_angle_r	subtalar_angle_r	hip_flexion_l	hip_adduction_l	hip_rotation_l	knee_angle_l	ankle_angle_l	subtalar_angle_l	lumbar_extension	lumbar_bending	lumbar_rotation
      6.22000000	     -2.06614372	      4.01222545	   -106.68463790	      0.93923567	      0.93400192	      0.71906266	     31.57196739	     -1.75821428	    -33.19215325	    -29.04626103	      2.68740992	     -6.07128106	     -8.68477410	     -8.28569822	      2.59503606	    -28.80528259	      7.53521566	     21.63137714	      0.40508389	     10.52502834	    -17.18614667
      6.23000000	     -1.94736175	      4.03731559	   -107.54779391	      0.93241130	      0.93511001	      0.72718609	     31.31472172	     -1.26748683	    -32.32735950	    -29.38387138	      2.85241529	     -6.42741846	     -7.74745213	     -8.18526610	      2.55516860	    -31.20147675	      6.27569885	     21.83370159	      0.43338869	     10.54441674	    -16.72916753
      6.24000000	     -1.77895122	      4.05022924	   -108.34419719	      0.92562468	      0.93621864	      0.73513313	     31.03076285	     -0.85176071	    -31.53439068	    -29.68597149	      3.13822938	     -6.89934324	     -6.65689103	     -8.04622985	      2.63352340	    -33.74847173	      5.10455745	     21.92898303	      0.47722324	     10.48146962	    -16.34884991
      6.25000000	     -1.69682278	      4.01345099	   -109.14269272	      0.91874339	      0.93740642	      0.74289753	     30.61868995	     -0.33716600	    -30.72740118	    -29.89884545	      3.47438344	     -7.19865529	     -5.55502368	     -8.00574388	      2.66246979	    -36.37688232	      4.11078143	     21.83078472	      0.43444345	     10.47426219	    -15.98041312
      6.26000000	     -1.59669118	      3.99966696	   -109.86065468	      0.91192744	      0.93851413	      0.75042556	     30.20910779	      0.12105462	    -30.03518888	    -30.08511525	      3.90209562	     -7.53652531	     -4.30746061	     -7.97394199	      2.80153912	    -39.06787059	      3.24516921	     21.50317945	      0.42911429	     10.42732330	    -15.70545398
      6.27000000	     -1.57929034	      3.98121577	   -110.56680695	      0.90503202	      0.93961224	      0.75770095	     29.72316102	      0.66258857	    -29.39050897	    -30.19707124	      4.35271468	     -7.74230395	     -3.03522208	     -8.05799996	      2.91797700	    -41.74133929	      2.56990510	     21.04449250	      0.37949769	     10.43994847	    -15.45143924
      6.28000000	     -1.61221793	      3.98076105	   -111.24648634	      0.89810281	      0.94066966	      0.76472531	     29.19591272	      1.24430146	    -28.82680857	    -30.24669920	      4.82078222	     -7.86819467	     -1.71595617	     -8.22897507	      3.05199353	    -44.34791915	      2.08047745	     20.43102586	      0.32570647	     10.48618663	    -15.23006829
      6.29000000	     -1.69037764	      4.00615091	   -111.91266406	      0.89114489	      0.94167922	      0.77148669	     28.63919154	      1.86801079	    -28.33709363	    -30.23320342	      5.29067506	     -7.93103570	     -0.36050226	     -8.47839648	      3.20928644	    -46.84102796	      1.77919767	     19.64344296	      0.27220383	     10.56690463	    -15.02814721
      6.30000000	     -1.80267832	      4.05747790	   -112.58088523	      0.88414002	      0.94264792	      0.77798671	     28.05510102	      2.53271326	    -27.90079501	    -30.15121255	      5.74030792	     -7.94518232	      1.01679547	     -8.79593944	      3.37878925	    -49.18043073	      1.66016606	     18.68589471	      0.22219035	     10.67164276	    -14.82995007
      6.31000000	     -1.93809370	      4.13803057	   -113.26401191	      0.87708663	      0.94358880	      0.78423400	     27.44816089	      3.23874198	    -27.49328253	    -29.99256726	      6.16143862	     -7.92747566	      2.40515579	     -9.16360861	      3.57068310	    -51.33125554	      1.69459437	     17.59360982	      0.18303582	     10.79336021	    -14.61691180
      6.32000000	     -2.08109992	      4.23465796	   -113.98603773	      0.86996945	      0.94449850	      0.79022971	     26.82679967	      3.96930484	    -27.09091280	    -29.78801989	      6.55656649	     -7.88747798	      3.78081394	     -9.56121734	      3.75909829	    -53.26862438	      1.85211992	     16.33986479	      0.14361656	     10.91164840	    -14.36653618
      6.33000000	     -2.22383476	      4.35115500	   -114.75496626	      0.86278501	      0.94538702	      0.79597081	     26.19285420	      4.73347902	    -26.64665088	    -29.52197632	      6.90308916	     -7.83529469	      5.13653718	     -9.97236588	      3.96242567	    -54.97109935	      2.11034343	     15.01759864	      0.11032556	     11.02176423	    -14.07932605
      6.34000000	     -2.35080856	      4.47956296	   -115.57582704	      0.85555112	      0.94626049	      0.80149651	     25.54495265	      5.51135249	    -26.15187735	    -29.20106523	      7.22315488	     -7.77861197	      6.45265115	    -10.36524390	      4.19161779	    -56.41693819	      2.45134287	     13.64607312	      0.08635790	     11.11023005	    -13.72669550
      6.35000000	     -2.46096494	      4.61700899	   -116.45520113	      0.84827291	      0.94710427	      0.80678413	     24.89359675	      6.30243011	    -25.57803213	    -28.84732602	      7.50295622	     -7.72162204	      7.72488475	    -10.73697699	      4.43943087	    -57.60716681	      2.86423914	     12.27123289	      0.06409993	     11.17572144	    -13.34038633
      6.36000000	     -2.54120488	      4.75660428	   -117.39502365	      0.84096824	      0.94792352	      0.81187585	     24.23349982	      7.08414362	    -24.93614302	    -28.46350481	      7.76677738	     -7.66644822	      8.93468777	    -11.06001651	      4.71259117	    -58.52487523	      3.35888077	     10.88744355	      0.04883429	     11.20710533	    -12.88591669
      6.37000000	     -2.59309495	      4.89560609	   -118.39019546	      0.83366567	      0.94871652	      0.81675487	     23.56865167	      7.85366485	    -24.21221110	    -28.05999424	      8.00687970	     -7.61502332	     10.08134450	    -11.33422089	      5.01182315	    -59.17601833	      3.93064947	      9.55299372	      0.03396770	     11.20730241	    -12.40008415
      6.38000000	     -2.61574742	      5.03221908	   -119.43505755	      0.82637851	      0.94947811	      0.82142947	     22.89839366	      8.60110289	    -23.42100729	    -27.64181403	      8.22655691	     -7.56392353	     11.16156726	    -11.55619070	      5.34119421	    -59.56526229	      4.57237816	      8.27824318	      0.02103490	     11.17597549	    -11.88614584
      6.39000000	     -2.61826915	      5.16989126	   -120.51902889	      0.81912750	      0.95021139	      0.82590506	     22.22183434	      9.32826549	    -22.58522880	    -27.20922923	      8.43193628	     -7.51164730	     12.17764468	    -11.73814015	      5.70374332	    -59.70352089	      5.26359541	      7.10878760	      0.01028023	     11.12595456	    -11.35365393
